<svg xmlns="http://www.w3.org/2000/svg" width="124" height="132" viewBox="0 0 124 132" fill="none" role="img" aria-label="Next.js">
  <title>Next.js</title>
  <defs>
    <radialGradient id="soap" cx="0.36" cy="0.32" r="0.78">
      <stop offset="0" stop-color="#F0F3F6" stop-opacity="0.06"/>
      <stop offset="0.55" stop-color="#F0F3F6" stop-opacity="0.20"/>
      <stop offset="0.88" stop-color="#F0F3F6" stop-opacity="0.46"/>
      <stop offset="1" stop-color="#FFFFFF" stop-opacity="0.18"/>
    </radialGradient>
  </defs>
  <g transform="translate(62,70)">
    <animateTransform attributeName="transform" type="translate" additive="sum" calcMode="spline" dur="4.6s" begin="-1.1s" repeatCount="indefinite" values="0 0; 1.4 -8; -1 -4; 1.1 -9; 0 0" keyTimes="0;0.25;0.5;0.75;1" keySplines="0.45 0 0.55 1;0.45 0 0.55 1;0.45 0 0.55 1;0.45 0 0.55 1"/>
    <animate attributeName="opacity" values="0.9;1;0.88;1;0.9" keyTimes="0;0.25;0.5;0.75;1" dur="3.4s" begin="-1.1s" repeatCount="indefinite"/>
    <circle r="38" fill="url(#soap)" stroke="#F0F3F6" stroke-opacity="0.6" stroke-width="1.4"/>
    <circle r="38" fill="none" stroke="#F0F3F6" stroke-opacity="0.3" stroke-width="2.8"/>
    <ellipse cx="-12.2" cy="-15.2" rx="9.9" ry="5.7" fill="#FFFFFF" opacity="0.5" transform="rotate(-28 -12.2 -15.2)"/>
    <path d="M18.665 21.978C16.758 23.255 14.465 24 12 24 5.377 24 0 18.623 0 12S5.377 0 12 0s12 5.377 12 12c0 3.583-1.574 6.801-4.067 9.001L9.219 7.2H7.2v9.596h1.615V9.251l9.85 12.727Zm-3.332-8.533 1.6 2.061V7.2h-1.6v6.245Z" fill="#F0F3F6" opacity="0.96" transform="scale(1.663) translate(-12,-12)"/>
  </g>
</svg>
